<?xml version="1.0" encoding="UTF-8"?>
<svg width="42px" height="55px" viewBox="0 0 42 55" version="1.1" xmlns="http://www.w3.org/2000/svg" xmlns:xlink="http://www.w3.org/1999/xlink">
    <!-- Generator: Sketch 42 (36781) - http://www.bohemiancoding.com/sketch -->
    <title>Combined Shape</title>
    <desc>Created with Sketch.</desc>
    <defs></defs>
    <g id="Design-Components-V2" stroke="none" stroke-width="1" fill="none" fill-rule="evenodd">
        <g id="Artboard-3-Copy" transform="translate(-77.000000, -132.000000)" fill-rule="nonzero" fill="#979797">
            <path d="M102.075001,169.361957 C93.7323981,172.057492 84.3561394,168.671988 79.7955173,160.772759 C74.5488122,151.685199 77.6624402,140.064981 86.75,134.818276 C95.8375598,129.571571 107.457778,132.685199 112.704483,141.772759 C117.265105,149.671988 115.508908,159.484818 109.003205,165.361957 L118.714102,182.181724 L111.785898,186.181724 L102.075001,169.361957 Z M101.75,160.799038 C107.011219,157.761472 108.813846,151.033978 105.776279,145.772759 C102.738713,140.51154 96.0112189,138.708913 90.75,141.746479 C85.4887811,144.784045 83.6861544,151.51154 86.7237206,156.772759 C89.7612867,162.033978 96.4887811,163.836604 101.75,160.799038 Z" id="Combined-Shape"></path>
        </g>
    </g>
</svg>